<?xml version="1.0" encoding="UTF-8" standalone="no"?>
<svg
   xmlns:dc="http://purl.org/dc/elements/1.1/"
   xmlns:cc="http://creativecommons.org/ns#"
   xmlns:rdf="http://www.w3.org/1999/02/22-rdf-syntax-ns#"
   xmlns:svg="http://www.w3.org/2000/svg"
   xmlns="http://www.w3.org/2000/svg"
   xmlns:sodipodi="http://sodipodi.sourceforge.net/DTD/sodipodi-0.dtd"
   xmlns:inkscape="http://www.inkscape.org/namespaces/inkscape"
   inkscape:version="1.0 (4035a4fb49, 2020-05-01)"
   sodipodi:docname="cloudinary.svg"
   version="1.1"
   viewBox="0 0 33 33"
   height="43"
   width="43"
   id="instagram">
  <metadata
     id="metadata16">
    <rdf:RDF>
      <cc:Work
         rdf:about="">
        <dc:format>image/svg+xml</dc:format>
        <dc:type
           rdf:resource="http://purl.org/dc/dcmitype/StillImage" />
        <dc:title></dc:title>
      </cc:Work>
    </rdf:RDF>
  </metadata>
  <defs
     id="defs14" />
  <sodipodi:namedview
     inkscape:current-layer="instagram"
     inkscape:window-maximized="1"
     inkscape:window-y="28"
     inkscape:window-x="0"
     inkscape:cy="52.458727"
     inkscape:cx="45.122451"
     inkscape:zoom="4.4944136"
     showgrid="false"
     id="namedview12"
     inkscape:window-height="1394"
     inkscape:window-width="2570"
     inkscape:pageshadow="2"
     inkscape:pageopacity="0"
     guidetolerance="10"
     gridtolerance="10"
     objecttolerance="10"
     borderopacity="1"
     bordercolor="#666666"
     pagecolor="#ffffff" />
  <g
     transform="matrix(0.13333334,0,0,-0.13333334,0,666.66669)"
     fill="#000000"
     stroke="none"
     id="g966" />
  <path
     style="stroke-width:0.342267;fill:#444202;fill-opacity:1"
     id="path975"
     d="m 28.095175,26.377128 c -0.415327,0 -0.802204,-0.276528 -0.938749,-0.712324 -0.169678,-0.542208 0.113113,-1.125718 0.631857,-1.303185 1.879168,-0.643368 3.093349,-2.366246 3.093349,-4.389108 0,-2.562265 -1.992958,-4.646732 -4.442403,-4.646732 -0.170346,0 -0.353411,0.01401 -0.576301,0.04412 l -0.966189,0.130905 -0.138554,-1.008806 C 24.164816,10.1666 20.562099,6.9046063 16.378061,6.9046063 c -3.458809,0 -6.5377686,2.1656787 -7.8439846,5.5176277 l -0.245648,0.630415 -0.6505979,0.01265 c -2.9906055,0.05741 -5.4233182,2.647674 -5.4233182,5.773849 0,2.282238 1.2667232,4.363203 3.2272173,5.301652 0.4959807,0.237675 0.7141853,0.850588 0.4869446,1.369693 -0.2272409,0.518754 -0.8132468,0.746628 -1.3092273,0.509653 -2.6609571,-1.274131 -4.38082346,-4.092624 -4.38082346,-7.180996 0,-4.018767 2.96048636,-7.385068 6.72083216,-7.798461 1.7325838,-3.788797 5.3637504,-6.201948 9.4189394,-6.201948 4.853377,0 9.072221,3.5588215 10.166255,8.42188 3.490937,0.05915 6.313206,3.047416 6.313206,6.712297 0,2.887801 -1.790482,5.440965 -4.45512,6.352812 -0.10174,0.035 -0.205488,0.05145 -0.307561,0.05145 z"
     fill="#0071ce" />
  <path
     style="stroke-width:0.342267;fill:#44423c;fill-opacity:0.91294861"
     id="path977"
     d="m 12.998904,26.857378 c 0,0 -3.35e-4,0 -3.35e-4,-3.5e-4 -3.35e-4,0 -3.35e-4,0 -6.69e-4,-3.51e-4 v 0 c 0,0 0,0 0,0 h -3.35e-4 c 0,0 0,0 -3.35e-4,0 v 0 h -3.36e-4 c 0,0 -3.33e-4,0 -3.33e-4,0 0,0 0,0 0,0 h -3.35e-4 c 0,0 0,0 0,0 0,3.51e-4 -3.36e-4,0 -3.36e-4,0 0,0 -3.33e-4,0 -6.69e-4,0 v 0 c 0,0 0,0 0,0 0,0 0,0 -3.34e-4,0 0,0 0,0 0,0 -6.69e-4,0 -3.35e-4,0 -3.35e-4,0 -3.34e-4,0 -3.34e-4,-3.5e-4 -6.69e-4,0 v 0 c 0,0 0,0 -3.35e-4,0 0,0 0,0 -3.34e-4,0 -3.35e-4,0 -6.69e-4,0 -0.0011,-3.5e-4 -3.36e-4,-3.5e-4 -6.69e-4,-3.5e-4 -0.0011,-3.5e-4 0,0 -3.35e-4,0 -3.35e-4,-3.51e-4 0,0 -3.35e-4,0 -3.35e-4,0 0,0 -3.33e-4,0 -3.33e-4,0 -3.35e-4,0 -6.72e-4,0 -3.35e-4,0 -3.37e-4,0 -3.37e-4,0 -3.37e-4,0 l -3.34e-4,-3.48e-4 c 0,0 -3.34e-4,0 -3.34e-4,0 0,0 0,0 0,0 -0.01507,-0.0056 -0.03145,-0.0092 -0.04852,-0.0098 h -3.35e-4 c 0,0 -3.34e-4,0 -3.34e-4,0 h -3.34e-4 c 0,0 0,0 0,0 h -0.004 v 0 h -3.36e-4 c 0,0 -3.34e-4,0 -3.34e-4,0 h -3.34e-4 v 0 c 0,0 0,0 -3.34e-4,0 v 0 c -3.37e-4,0 -3.37e-4,0 -3.37e-4,0 h -0.0017 c 0,0 0,0 0,0 0,0 0,0 -3.35e-4,0 v 0 c 0,0 0,0 0,0 h -3.34e-4 -3.36e-4 c 0,0 0,0 -3.33e-4,0 v 0 c 0,0 0,0 0,0 -0.427373,0 -0.777437,-0.364038 -0.780115,-0.810334 v -9.09712 h 0.662645 c 0.0011,0 0.0023,0 0.0033,0 0.101403,0.0046 0.170681,-0.07701 0.170681,-0.175019 0,-0.07315 -0.04284,-0.135812 -0.103748,-0.162066 l -3.1963326,-2.30746 c -0.05722,-0.04129 -0.132865,-0.04129 -0.190093,0 L 6.2752426,16.61912 c -0.060236,0.04376 -0.08635,0.12321 -0.064589,0.19637 0.02175,0.07315 0.086679,0.122866 0.1599725,0.122866 h 0.6659926 l 3.351e-4,9.094295 c 0.00329,0.628666 0.4862745,1.141818 1.1007273,1.158271 0.00696,6.98e-4 0.013717,0.0013 0.020747,0.0013 h 4.7720539 c 0.0011,0 0.0017,0 0.0027,0 0.04384,-7.01e-4 0.08368,-0.01924 0.113113,-0.04866 0,0 0,0 0,0 3.35e-4,-3.49e-4 0.0011,-10e-4 0.0013,-0.0013 0,0 3.35e-4,-3.51e-4 6.7e-4,-7e-4 0,0 0,0 0,0 l 3.35e-4,-3.52e-4 v 0 0 0 c 0,0 0,0 0,0 3.34e-4,0 0,0 3.34e-4,-3.48e-4 0,0 0,0 0,0 v 0 c 0,0 0,0 0,0 0.02878,-0.03115 0.04686,-0.07386 0.04719,-0.120756 v -3.51e-4 c 0,0 0,0 0,0 0,0 0,0 0,-3.5e-4 v 0 0 -3.5e-4 c 0,0 0,0 0,0 v -3.51e-4 c 0,-0.07352 -0.03981,-0.134064 -0.09739,-0.161366 z"
     fill="#dc8327" />
  <path
     style="stroke-width:0.342267;fill:#44423c;fill-opacity:0.82334638"
     id="path979"
     d="m 19.910832,26.857378 c 0,-3.5e-4 -3.35e-4,-3.5e-4 0,0 -6.7e-4,-3.5e-4 -0.0011,-3.5e-4 -0.0013,-7.01e-4 v 0 c 0,0 0,0 0,0 h -3.35e-4 c 0,0 0,0 -3.34e-4,0 v 0 h -3.35e-4 c 3.35e-4,0 0,0 -3.34e-4,0 0,0 0,0 0,0 v 0 c 0,0 0,0 0,0 -3.36e-4,3.51e-4 -3.36e-4,0 -6.7e-4,0 0,0 -3.35e-4,0 -3.35e-4,0 h -3.35e-4 v 0 c 0,0 0,0 0,0 0,0 -3.34e-4,0 -3.34e-4,0 -3.35e-4,0 -3.35e-4,0 -6.7e-4,0 0,0 0,-3.5e-4 -3.35e-4,0 0,0 0,0 0,0 0,0 -3.34e-4,0 -3.34e-4,0 h -3.34e-4 c -3.36e-4,0 -6.7e-4,0 -0.0011,-3.5e-4 -3.34e-4,-3.5e-4 -6.69e-4,-3.5e-4 -0.0011,-3.5e-4 0,0 -3.35e-4,0 -3.35e-4,-3.51e-4 0,0 -3.34e-4,0 -3.34e-4,0 h -3.34e-4 c -6.71e-4,0 -3.36e-4,0 -3.36e-4,0 -6.69e-4,0 -3.35e-4,0 -3.35e-4,0 -3.34e-4,0 -3.34e-4,-3.48e-4 -6.69e-4,-3.48e-4 h -3.34e-4 v 0 c -0.01507,-0.0056 -0.03146,-0.0092 -0.04852,-0.0098 0,0 -3.35e-4,0 -3.35e-4,0 h -3.34e-4 c 0,0 -3.36e-4,0 -3.36e-4,0 v 0 h -3.33e-4 v 0 h -3.35e-4 c 0,0 -3.35e-4,0 -3.35e-4,0 h -3.35e-4 v 0 c 0,0 0,0 -3.34e-4,0 v 0 c -3.34e-4,0 -3.34e-4,0 -3.34e-4,0 0,0 -3.35e-4,0 -3.35e-4,0 v 0 h -3.35e-4 v 0 c 0,0 0,0 -3.34e-4,0 v 0 c 0,0 -3.36e-4,0 -3.36e-4,0 0,0 0,0 0,0 h -3.34e-4 c 0,0 0,0 -3.36e-4,0 -0.427372,0 -0.777102,-0.364038 -0.779778,-0.810334 v -7.061285 h 0.665991 c 0.0023,0 0.0045,-3.5e-4 0.0067,0 0.09236,0 0.167335,-0.07841 0.167335,-0.175019 0,-0.07315 -0.04284,-0.135812 -0.103748,-0.162066 l -3.196763,-2.30744 c -0.05723,-0.04129 -0.132863,-0.04129 -0.190091,0 l -3.226549,2.325291 c -0.06024,0.04376 -0.08635,0.12321 -0.06459,0.196372 0.02175,0.07315 0.08668,0.122864 0.159973,0.122864 h 0.662979 l 3.35e-4,7.058485 c 0.0031,0.629015 0.48661,1.142518 1.101062,1.158269 0.0067,7.01e-4 0.01338,10e-4 0.02008,10e-4 h 4.772053 c 0.0011,0 0.0017,0 0.0027,0 0.04384,-7.01e-4 0.08368,-0.01924 0.113125,-0.04866 0,0 0,0 0,0 3.36e-4,-3.5e-4 0.0013,-0.001 0.0013,-0.0013 0,0 3.35e-4,-3.5e-4 6.7e-4,-6.99e-4 0,0 0,0 3.34e-4,-3.51e-4 v 0 0 c 0,0 0,0 0,0 v 0 0 c 6.69e-4,0 3.35e-4,0 3.35e-4,-3.49e-4 0,0 0,0 0,0 0,0 0,0 0,0 0,0 0,0 0,0 0.02878,-0.03116 0.04686,-0.07386 0.04719,-0.120759 v -3.49e-4 c 0,0 0,0 0,0 0,0 0,0 0,-3.51e-4 v 0 0 -3.5e-4 c 0,0 0,0 0,0 v -3.49e-4 c 0.0013,-0.07276 -0.03882,-0.133329 -0.09639,-0.160631 z"
     fill="#f4b21b" />
  <path
     style="stroke-width:0.342267;fill:#44423c;fill-opacity:0.7834549"
     id="path981"
     d="m 26.825103,26.857378 c 0,-3.5e-4 -3.35e-4,-3.5e-4 0,0 -6.69e-4,-3.5e-4 -0.0011,-3.5e-4 -0.0011,-3.5e-4 h -3.36e-4 c 0,0 0,0 -3.34e-4,0 v 0 c 0,0 0,0 -3.34e-4,0 0,0 0,0 0,0 0,0 0,0 -3.35e-4,0 h -3.35e-4 c 0,0 0,0 0,0 v 0 c 0,0 0,0 0,0 -3.35e-4,3.5e-4 -3.35e-4,0 -6.69e-4,0 3.34e-4,0 0,0 -3.35e-4,0 v 0 0 c 0,0 0,0 0,0 h -3.37e-4 c -6.68e-4,0 -3.34e-4,0 -6.68e-4,0 0,0 0,-3.51e-4 -3.34e-4,0 0,0 0,0 0,0 0,0 -3.36e-4,0 -3.36e-4,0 h -3.34e-4 c -3.34e-4,0 -6.69e-4,0 -0.0011,-3.51e-4 -3.35e-4,-3.5e-4 -6.69e-4,-3.5e-4 -0.0011,-3.5e-4 0,0 -3.34e-4,0 -3.34e-4,0 -3.35e-4,0 -3.35e-4,0 -6.7e-4,-3.5e-4 h -3.34e-4 c -6.69e-4,0 -6.69e-4,0 -6.69e-4,0 -6.71e-4,0 -3.35e-4,0 -3.35e-4,0 0,0 -3.36e-4,0 -3.36e-4,0 h -3.34e-4 v 0 c -0.01507,-0.0056 -0.03146,-0.0092 -0.04852,-0.0098 0,0 -3.32e-4,0 -3.32e-4,0 h -3.36e-4 c 0,0 -3.35e-4,0 -3.35e-4,0 v 0 h -3.35e-4 v 0 c 0,0 -3.34e-4,0 -3.34e-4,0 h -0.0037 c 0,0 -3.35e-4,0 -3.35e-4,0 v 0 c 0,0 0,0 0,0 h -3.35e-4 c -3.35e-4,0 -3.35e-4,0 -3.35e-4,0 0,0 -3.33e-4,0 -3.33e-4,0 v 0 h -3.36e-4 v 0 c 0,0 0,0 -3.35e-4,0 v 0 c 0,0 -3.35e-4,0 -3.35e-4,0 0,0 0,0 0,0 h -3.33e-4 c 0,0 0,0 -3.36e-4,0 -0.427372,0 -0.777101,-0.364038 -0.77978,-0.810334 v -5.026858 h 0.66432 c 0.0011,0 0.0023,0 0.0033,0 0.09405,-0.0023 0.17068,-0.07701 0.17068,-0.175019 0,-0.07315 -0.04284,-0.135815 -0.103747,-0.162066 L 23.51533,18.364464 c -0.05723,-0.0413 -0.132864,-0.0413 -0.190093,0 l -3.221194,2.325291 c -0.06024,0.04375 -0.08635,0.123211 -0.06458,0.196369 0.02175,0.07316 0.08668,0.122866 0.159971,0.122866 h 0.664319 l 3.35e-4,5.023024 c 0.0033,0.629015 0.486945,1.142519 1.101062,1.158269 0.0067,7.01e-4 0.01338,10e-4 0.02007,10e-4 h 4.772051 c 0.0011,0 0.0017,0 0.0027,0 0.04384,-6.99e-4 0.08368,-0.01924 0.113125,-0.04866 0,0 0,0 0,0 3.35e-4,-3.5e-4 0.0013,-0.001 0.0013,-0.0013 0,0 3.35e-4,-3.51e-4 6.69e-4,-7.01e-4 0,0 0,0 3.36e-4,-3.5e-4 v 0 0 0 0 c 0,0 0,0 0,0 6.68e-4,0 0,0 3.33e-4,-3.48e-4 0,0 0,0 0,0 0,0 0,0 0,0 0,0 0,0 0,0 0.02878,-0.03116 0.04686,-0.07386 0.04719,-0.120757 v -3.49e-4 c 0,0 0,0 0,0 0,0 0,0 0,-3.51e-4 v 0 0 -3.5e-4 c 0,0 0,0 0,0 v -3.5e-4 c -3.34e-4,-0.07246 -0.04049,-0.133014 -0.09806,-0.160317 z"
     fill="#f2d864" />
</svg>
