<?xml version="1.0" encoding="UTF-8" standalone="no"?>
<svg
   xmlns:dc="http://purl.org/dc/elements/1.1/"
   xmlns:cc="http://creativecommons.org/ns#"
   xmlns:rdf="http://www.w3.org/1999/02/22-rdf-syntax-ns#"
   xmlns:svg="http://www.w3.org/2000/svg"
   xmlns="http://www.w3.org/2000/svg"
   xmlns:sodipodi="http://sodipodi.sourceforge.net/DTD/sodipodi-0.dtd"
   xmlns:inkscape="http://www.inkscape.org/namespaces/inkscape"
   inkscape:version="1.0 (4035a4fb49, 2020-05-01)"
   sodipodi:docname="roinstagram.svg"
   version="1.1"
   viewBox="0 0 33 33"
   height="33"
   width="33"
   id="instagram">
  <metadata
     id="metadata16">
    <rdf:RDF>
      <cc:Work
         rdf:about="">
        <dc:format>image/svg+xml</dc:format>
        <dc:type
           rdf:resource="http://purl.org/dc/dcmitype/StillImage" />
        <dc:title></dc:title>
      </cc:Work>
    </rdf:RDF>
  </metadata>
  <defs
     id="defs14" />
  <sodipodi:namedview
     inkscape:current-layer="instagram"
     inkscape:window-maximized="0"
     inkscape:window-y="28"
     inkscape:window-x="0"
     inkscape:cy="8.5087392"
     inkscape:cx="15.618756"
     inkscape:zoom="17.977654"
     showgrid="false"
     id="namedview12"
     inkscape:window-height="1384"
     inkscape:window-width="1280"
     inkscape:pageshadow="2"
     inkscape:pageopacity="0"
     guidetolerance="10"
     gridtolerance="10"
     objecttolerance="10"
     borderopacity="1"
     bordercolor="#666666"
     pagecolor="#ffffff" />
  <g
     style="fill:#c13584;fill-opacity:1"
     data-name="Group 23"
     id="Group_23">
    <g
       style="fill:#c13584;fill-opacity:1"
       data-name="Group 22"
       id="Group_22">
      <path
         style="fill:#c13584;fill-opacity:1"
         fill="#44423c"
         d="M24.083,0H8.917A8.927,8.927,0,0,0,0,8.917V24.083A8.927,8.927,0,0,0,8.917,33H24.083A8.927,8.927,0,0,0,33,24.083V8.917A8.927,8.927,0,0,0,24.083,0Zm6.25,24.083a6.258,6.258,0,0,1-6.25,6.25H8.917a6.258,6.258,0,0,1-6.25-6.25V8.917a6.258,6.258,0,0,1,6.25-6.25H24.083a6.258,6.258,0,0,1,6.25,6.25Z"
         data-name="Path 20"
         id="Path_20" />
    </g>
  </g>
  <g
     style="fill:#c13584;fill-opacity:1"
     transform="translate(9.164 9.034)"
     data-name="Group 25"
     id="Group_25">
    <g
       style="fill:#c13584;fill-opacity:1"
       data-name="Group 24"
       id="Group_24">
      <path
         style="fill:#c13584;fill-opacity:1"
         fill="#44423c"
         transform="translate(-142.185 -140.171)"
         d="M156.906,146.486a7.4,7.4,0,1,0-7.335,8.487,7.5,7.5,0,0,0,1.1-.082,7.4,7.4,0,0,0,6.234-8.405Zm-6.625,5.768a4.734,4.734,0,1,1,3.988-5.377A4.7,4.7,0,0,1,150.28,152.254Z"
         data-name="Path 21"
         id="Path_21" />
    </g>
  </g>
  <g
     style="fill:#c13584;fill-opacity:1"
     transform="translate(23.509 6.825)"
     data-name="Group 27"
     id="Group_27">
    <g
       style="fill:#c13584;fill-opacity:1"
       data-name="Group 26"
       id="Group_26">
      <path
         style="fill:#c13584;fill-opacity:1"
         fill="#44423c"
         transform="translate(-364.741 -105.893)"
         d="M367.017,106.283a1.333,1.333,0,1,0,.39.943A1.343,1.343,0,0,0,367.017,106.283Z"
         data-name="Path 22"
         id="Path_22" />
    </g>
  </g>
</svg>
