<?xml version="1.0" encoding="UTF-8" standalone="no"?>
<svg
   xmlns:dc="http://purl.org/dc/elements/1.1/"
   xmlns:cc="http://creativecommons.org/ns#"
   xmlns:rdf="http://www.w3.org/1999/02/22-rdf-syntax-ns#"
   xmlns:svg="http://www.w3.org/2000/svg"
   xmlns="http://www.w3.org/2000/svg"
   xmlns:sodipodi="http://sodipodi.sourceforge.net/DTD/sodipodi-0.dtd"
   xmlns:inkscape="http://www.inkscape.org/namespaces/inkscape"
   inkscape:version="1.0 (4035a4fb49, 2020-05-01)"
   sodipodi:docname="bfacebook.svg"
   version="1.1"
   viewBox="0 0 33 33"
   height="33"
   width="33"
   id="facebook-logo">
  <metadata
     id="metadata8">
    <rdf:RDF>
      <cc:Work
         rdf:about="">
        <dc:format>image/svg+xml</dc:format>
        <dc:type
           rdf:resource="http://purl.org/dc/dcmitype/StillImage" />
        <dc:title></dc:title>
      </cc:Work>
    </rdf:RDF>
  </metadata>
  <defs
     id="defs6" />
  <sodipodi:namedview
     inkscape:current-layer="facebook-logo"
     inkscape:window-maximized="0"
     inkscape:window-y="28"
     inkscape:window-x="1280"
     inkscape:cy="16.5"
     inkscape:cx="9.0268176"
     inkscape:zoom="25.424242"
     showgrid="false"
     id="namedview4"
     inkscape:window-height="1384"
     inkscape:window-width="1280"
     inkscape:pageshadow="2"
     inkscape:pageopacity="0"
     guidetolerance="10"
     gridtolerance="10"
     objecttolerance="10"
     borderopacity="1"
     bordercolor="#666666"
     pagecolor="#ffffff" />
  <path
     style="fill:#3b5999;fill-opacity:1;stroke-width:1"
     fill="#44423c"
     d="M 33,5.5000001 A 5.6999999,5.6999999 0 0 0 27.5,0 H 5.5000001 A 5.6999999,5.6999999 0 0 0 0,5.5000001 V 27.5 A 5.6999999,5.6999999 0 0 0 5.5000001,33 H 16.5 V 20.533 h -4.033 v -5.5 H 16.5 v -2.142 c 0,-3.7 2.775,-7.024 6.188,-7.024 h 4.446 v 5.5 h -4.446 c -0.487,0 -1.054,0.591 -1.054,1.475 v 2.191 h 5.5 v 5.5 h -5.5 V 33 H 27.5 A 5.6999999,5.6999999 0 0 0 33,27.5 Z"
     id="Facebook__x28_alt_x29_" />
</svg>
