<?xml version="1.0" encoding="UTF-8" standalone="no"?>
<svg
   xmlns:dc="http://purl.org/dc/elements/1.1/"
   xmlns:cc="http://creativecommons.org/ns#"
   xmlns:rdf="http://www.w3.org/1999/02/22-rdf-syntax-ns#"
   xmlns:svg="http://www.w3.org/2000/svg"
   xmlns="http://www.w3.org/2000/svg"
   xmlns:sodipodi="http://sodipodi.sourceforge.net/DTD/sodipodi-0.dtd"
   xmlns:inkscape="http://www.inkscape.org/namespaces/inkscape"
   inkscape:version="1.0 (4035a4fb49, 2020-05-01)"
   sodipodi:docname="btwitter.svg"
   version="1.1"
   viewBox="0 0 33 33"
   height="33"
   width="33"
   id="instagram">
  <metadata
     id="metadata16">
    <rdf:RDF>
      <cc:Work
         rdf:about="">
        <dc:format>image/svg+xml</dc:format>
        <dc:type
           rdf:resource="http://purl.org/dc/dcmitype/StillImage" />
        <dc:title></dc:title>
      </cc:Work>
    </rdf:RDF>
  </metadata>
  <defs
     id="defs14" />
  <sodipodi:namedview
     inkscape:current-layer="instagram"
     inkscape:window-maximized="0"
     inkscape:window-y="28"
     inkscape:window-x="1280"
     inkscape:cy="55.796203"
     inkscape:cx="45.122451"
     inkscape:zoom="4.4944136"
     showgrid="false"
     id="namedview12"
     inkscape:window-height="1384"
     inkscape:window-width="1280"
     inkscape:pageshadow="2"
     inkscape:pageopacity="0"
     guidetolerance="10"
     gridtolerance="10"
     objecttolerance="10"
     borderopacity="1"
     bordercolor="#666666"
     pagecolor="#ffffff" />
  <g
     transform="matrix(0.13333334,0,0,-0.13333334,0,666.66669)"
     fill="#000000"
     stroke="none"
     id="g966" />
  <path
     style="fill:#1da1f2;fill-opacity:1"
     id="Path_23"
     data-name="Path 23"
     d="M 27.072221,0.22624939 H 6.446222 A 6.187,6.187 0 0 0 0.25922216,6.4132494 V 27.039249 a 6.187,6.187 0 0 0 6.18699984,6.187 h 20.625999 a 6.187,6.187 0 0 0 6.187,-6.187 V 6.4132494 a 6.187,6.187 0 0 0 -6.187,-6.18700001 z m -2.1,12.79999961 0.012,0.526 a 11.553,11.553 0 0 1 -17.788999,9.729 8.354,8.354 0 0 0 0.969,0.058 8.152,8.152 0 0 0 5.044999,-1.739 4.069,4.069 0 0 1 -3.799999,-2.821 4.239,4.239 0 0 0 0.765,0.07 4.062,4.062 0 0 0 1.069999,-0.14 4.067,4.067 0 0 1 -3.252999,-3.983 v -0.052 a 4.057,4.057 0 0 0 1.84,0.509 4.069,4.069 0 0 1 -1.258,-5.4219996 11.529,11.529 0 0 0 8.373999,4.2449996 4.066,4.066 0 0 1 6.924,-3.7 8.226,8.226 0 0 0 2.58,-0.9859996 4.073,4.073 0 0 1 -1.786,2.2479996 8.144,8.144 0 0 0 2.333,-0.639 8.212,8.212 0 0 1 -2.03,2.097 z"
     fill="#44423c" />
</svg>
